<svg width="427" height="250" viewBox="0 0 427 250" fill="none" xmlns="http://www.w3.org/2000/svg">
<path d="M12.5052 184.18C12.5052 184.18 35.5985 208.103 59.3468 208.695C83.0951 209.287 111.632 205.913 127.478 174.71C143.324 143.506 119.052 107.539 119.052 107.539C119.052 107.539 99.5123 73.4423 126.069 51.0879C152.626 28.7335 190.341 14.1478 254.986 28.2574C280.004 31.4153 317.37 53.2855 317.37 53.2855C317.37 53.2855 341.357 73.9346 361.643 75.2218C381.928 76.5091 391.554 63.4755 396.817 55.1397C402.079 46.8038 414.695 37.4456 414.695 37.4456" stroke="#98C6EB" stroke-width="2" stroke-miterlimit="10"/>
<path d="M378.047 249.123C378.047 249.123 381.979 241.02 378.307 221.991C374.634 202.962 357.403 189.77 347.928 172.313C338.453 154.855 352.168 132.192 348.568 105.565C344.968 78.9385 308.465 64.477 259.444 81.9161C210.423 99.3552 204.815 148.15 205.252 169.623C205.689 191.096 182.411 205.463 182.411 205.463C182.411 205.463 144.912 227.899 98.3589 189.461C51.8055 151.023 14.6696 176.175 14.6696 176.175" stroke="#98C6EB" stroke-width="2" stroke-miterlimit="10"/>
<path d="M16.0841 28.5773C16.0841 28.5773 65.7876 33.3972 93.1754 126.459C105.033 163.475 144.857 166.573 151.94 165.552C159.022 164.531 234.444 141.921 270.139 173.198C305.834 204.476 298.767 204.409 293.844 248.32" stroke="#98C6EB" stroke-width="2" stroke-miterlimit="10"/>
<path d="M129.335 1.483C129.335 1.483 127.937 6.98519 140.458 23.6481C152.98 40.311 155.202 48.766 158.613 53.5026C162.024 58.2392 172.113 67.9061 185.388 66.0852C198.659 64.2643 212.163 58.7197 216.587 37.9984C221.011 17.2771 221.324 4.63336 221.324 4.63336" stroke="#98C6EB" stroke-width="2" stroke-miterlimit="10"/>
<path d="M412.054 134.88C412.054 134.88 402.87 128.675 385.072 134.621C367.273 140.568 334.176 152.906 307.6 136.623C298.71 131.078 289.013 120.623 289.112 110.289C289.211 99.9557 291.334 86.8938 281.175 78.1489C271.016 69.4039 250.896 56.7663 248.261 44.9259C245.626 33.0893 250.278 16.9751 258.367 7.30427" stroke="#98C6EB" stroke-width="2" stroke-miterlimit="10"/>
<path d="M338.782 245.769C338.782 245.769 349.376 235.536 353.509 195.284C357.642 155.031 401.937 166.847 409.475 178.945" stroke="#98C6EB" stroke-width="2" stroke-miterlimit="10"/>
<path d="M356.269 219.99C356.269 219.99 350.955 184.292 374.486 174.812" stroke="#555555" stroke-width="2" stroke-miterlimit="10"/>
<path d="M334.576 59.2554C334.576 59.2554 368.312 84.4683 387.538 59.7629" stroke="#555555" stroke-width="2" stroke-miterlimit="10"/>
<path d="M383.105 131.439C383.105 131.439 400.834 125.915 409.944 130.01C419.055 134.104 424.794 135.216 424.794 135.216" stroke="#555555" stroke-width="2" stroke-miterlimit="10"/>
<path d="M255.339 88.8691C255.339 88.8691 279.215 74.1191 302.407 78.9859" stroke="#555555" stroke-width="2" stroke-miterlimit="10"/>
<path d="M246.274 168.099C246.274 168.099 280.757 174.124 289.185 206.902" stroke="#555555" stroke-width="2" stroke-miterlimit="10"/>
<path d="M128.763 57.2827C128.763 57.2827 145.749 36.2502 172.873 34.0631" stroke="#555555" stroke-width="2" stroke-miterlimit="10"/>
<path d="M98.9813 147.999C98.9813 147.999 122.986 176.183 156.562 167.24" stroke="#555555" stroke-width="2" stroke-miterlimit="10"/>
<path d="M66.8961 56.6901C66.8961 56.6901 49.0429 29.6775 14.0435 23.7195" stroke="#555555" stroke-width="2" stroke-miterlimit="10"/>
<path d="M1.58087 184.95C1.58087 184.95 22.89 219.353 60.3688 217.154" stroke="#555555" stroke-width="2" stroke-miterlimit="10"/>
</svg>
