<svg width="1512" height="680" viewBox="0 0 1512 680" fill="none" xmlns="http://www.w3.org/2000/svg">
<path d="M1604.51 602.262C1566.92 581.675 1545.18 571.466 1504.62 558.07C1431.58 534.165 1389.74 525.046 1313.63 516.096C1267.08 511.903 1241.39 510.69 1196.26 510.473C1122.46 509.311 1083.34 504.434 1017.56 488.167C934.42 468.67 893.452 453.074 827.494 419.381" stroke="#98C6EB" stroke-width="4" stroke-linejoin="round"/>
<path d="M829.697 420.227C792.11 399.64 770.372 389.431 729.81 376.035C656.766 352.13 614.934 343.011 538.82 334.061C492.273 329.868 466.581 328.655 421.452 328.438C347.655 327.276 308.526 322.399 242.75 306.132C159.61 286.635 118.643 271.039 52.6844 237.346" stroke="#98C6EB" stroke-width="4" stroke-linejoin="round"/>
<path d="M64.3747 243.433C26.7878 222.846 5.04984 212.636 -35.512 199.241C-108.556 175.336 -150.388 166.217 -226.502 157.266C-273.05 153.073 -298.741 151.861 -343.87 151.644C-417.667 150.482 -456.796 145.605 -522.572 129.338C-605.712 109.841 -646.68 94.2445 -712.638 60.5523" stroke="#98C6EB" stroke-width="4" stroke-linejoin="round"/>
<path d="M1968.86 758.628C1933.31 735.562 1912.58 723.909 1873.36 707.789C1802.71 678.977 1761.8 667.021 1686.64 652.867C1640.55 645.485 1615 642.506 1569.94 639.175C1496.33 632.925 1457.72 625.375 1393.59 604.659C1312.42 579.532 1273.01 561.196 1210.38 523.14" stroke="#98C6EB" stroke-width="4" stroke-linejoin="round"/>
<path d="M1212.5 524.133C1176.95 501.067 1156.22 489.414 1117 473.294C1046.35 444.482 1005.44 432.526 930.275 418.372C884.184 410.99 858.637 408.01 813.578 404.68C739.973 398.43 701.358 390.88 637.227 370.164C556.063 345.037 516.649 326.701 454.022 288.645" stroke="#98C6EB" stroke-width="4" stroke-linejoin="round"/>
<path d="M465.111 295.504C429.556 272.438 408.83 260.785 369.608 244.665C298.956 215.853 258.051 203.897 182.885 189.743C136.794 182.361 111.247 179.381 66.1874 176.051C-7.41753 169.801 -46.0328 162.251 -110.163 141.535C-191.327 116.408 -230.741 98.0718 -293.368 60.0159" stroke="#98C6EB" stroke-width="4" stroke-linejoin="round"/>
<path d="M1986.92 752.704C1949.72 731.615 1928.17 721.114 1887.85 707.171C1815.24 682.282 1773.57 672.595 1697.6 662.609C1651.12 657.782 1625.44 656.218 1580.3 655.384C1506.51 653.213 1467.46 647.804 1401.97 630.647C1319.18 610.023 1278.5 593.876 1213.17 559.301" stroke="#98C6EB" stroke-width="4" stroke-linejoin="round"/>
<path d="M1215.35 560.176C1178.15 539.087 1156.6 528.586 1116.28 514.644C1043.67 489.754 1002 480.067 926.037 470.081C879.555 465.254 853.879 463.69 808.739 462.857C734.941 460.685 695.893 455.276 630.409 438.119C547.616 417.496 506.935 401.348 441.602 366.773" stroke="#98C6EB" stroke-width="4" stroke-linejoin="round"/>
<path d="M453.179 373.016C415.974 351.927 394.425 341.426 354.108 327.483C281.499 302.593 239.828 292.907 163.861 282.921C117.38 278.093 91.7032 276.53 46.5639 275.696C-27.2342 273.525 -66.2824 268.116 -131.767 250.959C-214.56 230.335 -255.241 214.188 -320.574 179.613" stroke="#98C6EB" stroke-width="4" stroke-linejoin="round"/>
</svg>
