<svg width="1280" height="832" viewBox="0 0 1280 832" fill="none" xmlns="http://www.w3.org/2000/svg">
<path d="M-73.8701 645.373C-73.8701 645.373 7.46652 735.1 91.1628 737.269C174.859 739.439 275.442 726.717 331.356 609.583C387.271 492.448 301.806 357.525 301.806 357.525C301.806 357.525 233.017 229.611 326.662 145.663C420.307 61.7141 553.259 6.89465 781.062 59.7031C869.228 71.4993 1000.87 153.491 1000.87 153.491C1000.87 153.491 1085.36 230.93 1156.85 235.716C1228.34 240.502 1262.3 191.569 1280.86 160.275C1299.43 128.982 1343.91 93.8348 1343.91 93.8348" stroke="#98C6EB" stroke-width="2" stroke-miterlimit="10"/>
<path d="M1214.29 888.289C1214.29 888.289 1228.16 857.871 1215.26 786.468C1202.36 715.064 1141.66 665.596 1108.31 600.104C1074.95 534.612 1123.34 449.531 1110.71 349.615C1098.08 249.7 969.459 195.509 796.653 261.061C623.847 326.613 603.977 509.741 605.469 590.322C606.961 670.903 524.892 724.873 524.892 724.873C524.892 724.873 392.682 809.15 228.696 665.004C64.7089 520.859 -66.2266 615.327 -66.2266 615.327" stroke="#98C6EB" stroke-width="2" stroke-miterlimit="10"/>
<path d="M-60.9182 61.4264C-60.9182 61.4264 114.244 79.4056 210.565 428.584C252.275 567.472 392.624 579.01 417.586 575.163C442.547 571.316 708.414 486.299 834.147 603.599C959.879 720.899 934.973 720.66 917.526 885.46" stroke="#98C6EB" stroke-width="2" stroke-miterlimit="10"/>
<path d="M338.281 -40.5007C338.281 -40.5007 333.339 -19.8492 377.433 42.6551C421.528 105.16 429.339 136.885 441.35 154.652C453.362 172.42 488.898 208.676 535.69 201.813C582.465 194.951 630.069 174.114 645.706 96.3418C661.344 18.57 662.476 -28.8795 662.476 -28.8795" stroke="#98C6EB" stroke-width="2" stroke-miterlimit="10"/>
<path d="M1334.39 459.489C1334.39 459.489 1302.04 436.221 1239.3 458.577C1176.55 480.933 1059.88 527.305 966.253 466.258C934.932 445.467 900.78 406.253 901.152 367.474C901.523 328.695 909.034 279.672 873.25 246.877C837.466 214.081 766.583 166.699 757.323 122.271C748.063 77.857 764.494 17.3739 793.023 -18.9361" stroke="#98C6EB" stroke-width="2" stroke-miterlimit="10"/>
<path d="M1075.91 875.789C1075.91 875.789 1113.27 837.364 1127.93 686.297C1142.58 535.23 1298.66 579.476 1325.2 624.858" stroke="#98C6EB" stroke-width="2" stroke-miterlimit="10"/>
<path d="M1137.6 779.008C1137.6 779.008 1118.95 645.051 1201.9 609.426" stroke="#555555" stroke-width="2" stroke-miterlimit="10"/>
<path d="M1061.5 175.856C1061.5 175.856 1180.34 270.4 1248.15 177.644" stroke="#555555" stroke-width="2" stroke-miterlimit="10"/>
<path d="M1232.37 446.638C1232.37 446.638 1294.86 425.87 1326.96 441.215C1359.06 456.56 1379.29 460.721 1379.29 460.721" stroke="#555555" stroke-width="2" stroke-miterlimit="10"/>
<path d="M782.172 287.164C782.172 287.164 866.354 231.758 948.078 249.971" stroke="#555555" stroke-width="2" stroke-miterlimit="10"/>
<path d="M750.051 584.516C750.051 584.516 871.567 607.048 901.198 730.039" stroke="#555555" stroke-width="2" stroke-miterlimit="10"/>
<path d="M336.142 168.905C336.142 168.905 396.054 89.9376 491.652 81.6707" stroke="#555555" stroke-width="2" stroke-miterlimit="10"/>
<path d="M230.98 509.406C230.98 509.406 315.519 615.122 433.871 581.486" stroke="#555555" stroke-width="2" stroke-miterlimit="10"/>
<path d="M118.1 166.815C118.1 166.815 55.2382 65.4816 -68.0992 43.1996" stroke="#555555" stroke-width="2" stroke-miterlimit="10"/>
<path d="M-112.376 648.288C-112.376 648.288 -37.3499 777.346 94.7435 769.013" stroke="#555555" stroke-width="2" stroke-miterlimit="10"/>
</svg>
