<svg width="120" height="368" viewBox="0 0 320 568" fill="none" xmlns="http://www.w3.org/2000/svg">
<path d="M322.009 596.548C317.669 573.288 314.458 560.44 306.133 538.483C291.051 499.021 280.527 478.05 258.225 442.618C244.057 421.407 235.783 410.092 220.458 390.898C195.733 359.224 184.381 340.911 168.629 307.25C148.28 265.082 140.725 242.169 132.104 202.219" stroke="#98C6EB" stroke-width="0.45" stroke-linejoin="round"/>
<path d="M132.507 203.454C128.166 180.193 124.956 167.346 116.631 145.389C101.549 105.927 91.0252 84.956 68.7226 49.5241C54.5551 28.3125 46.2806 16.9975 30.9561 -2.196C6.23053 -33.8701 -5.12124 -52.1833 -20.8729 -85.844C-41.2219 -128.012 -48.7771 -150.925 -57.3987 -190.875" stroke="#98C6EB" stroke-width="0.45" stroke-linejoin="round"/>
<path d="M338.403 801.218C335.78 777.935 333.511 765.001 326.768 742.64C314.529 702.442 305.492 680.853 285.661 643.967C272.966 621.812 265.47 609.929 251.455 589.655C228.894 556.248 218.822 537.2 205.468 502.65C188.118 459.312 182.224 436.08 176.541 395.986" stroke="#98C6EB" stroke-width="0.45" stroke-linejoin="round"/>
<path d="M176.855 397.237C174.232 373.954 171.962 361.02 165.22 338.659C152.981 298.461 143.944 276.872 124.113 239.986C111.418 217.831 103.922 205.948 89.9065 185.674C67.3462 152.267 57.2735 133.219 43.92 98.6688C26.5695 55.3312 20.6759 32.0992 14.9932 -7.9953" stroke="#98C6EB" stroke-width="0.45" stroke-linejoin="round"/>
<path d="M411.927 814.824C407.924 791.547 404.899 778.676 396.883 756.627C382.357 716.998 372.122 695.894 350.297 660.155C336.414 638.745 328.289 627.311 313.216 607.894C288.906 575.859 277.802 557.391 262.517 523.536C242.752 481.114 235.522 458.125 227.478 418.125" stroke="#98C6EB" stroke-width="0.45" stroke-linejoin="round"/>
<path d="M227.864 419.364C223.861 396.087 220.835 383.215 212.82 361.167C198.293 321.538 188.059 300.433 166.234 264.695C152.351 243.285 144.226 231.851 129.153 212.433C104.843 180.399 93.7389 161.93 78.4541 128.075C58.6885 85.6533 51.4586 62.6648 43.4148 22.665" stroke="#98C6EB" stroke-width="0.45" stroke-linejoin="round"/>
<path d="M44.7923 29.7943C40.7896 6.51716 37.7638 -6.35422 29.748 -28.4028C15.2218 -68.0319 4.98698 -89.1363 -16.8377 -124.875C-30.721 -146.285 -38.8456 -157.719 -53.9188 -177.136C-78.2284 -209.171 -89.3328 -227.639 -104.618 -261.494C-124.383 -303.916 -131.613 -326.905 -139.657 -366.905" stroke="#98C6EB" stroke-width="0.45" stroke-linejoin="round"/>
</svg>
