<svg width="320" height="568" viewBox="0 0 320 568" fill="none" xmlns="http://www.w3.org/2000/svg">
<path d="M412.82 647.274C405.643 624.727 400.872 612.374 389.902 591.611C370.067 554.311 357.037 534.799 330.534 502.389C313.858 483.087 304.25 472.879 286.675 455.723C258.231 427.341 244.707 410.567 224.923 379.107C199.528 339.771 189.204 317.965 175.72 279.384" stroke="#98C6EB" stroke-linejoin="round"/>
<path d="M176.273 280.559C169.096 258.012 164.325 245.659 153.355 224.897C133.52 187.596 120.49 168.084 93.9866 135.674C77.3106 116.372 67.7035 106.164 50.1284 89.0078C21.6843 60.6258 8.16013 43.8528 -11.6236 12.3923C-37.019 -26.9432 -47.343 -48.7494 -60.8271 -87.3306" stroke="#98C6EB" stroke-linejoin="round"/>
<path d="M454.337 848.358C448.861 825.576 445.013 813.022 435.564 791.664C418.46 753.282 406.829 732.972 382.599 698.815C367.267 678.395 358.363 667.527 341.954 649.137C315.445 618.769 303.099 601.108 285.585 568.47C263.021 527.603 254.307 505.276 243.721 466.189" stroke="#98C6EB" stroke-linejoin="round"/>
<path d="M244.187 467.391C238.712 444.61 234.864 432.055 225.414 410.697C208.31 372.315 196.679 352.006 172.45 317.849C157.118 297.428 148.213 286.561 131.804 268.17C105.295 237.802 92.9495 220.142 75.4359 187.503C52.8718 146.637 44.1573 124.309 33.572 85.2219" stroke="#98C6EB" stroke-linejoin="round"/>
<path d="M528.977 852.791C522.134 830.185 517.543 817.786 506.869 796.894C487.565 759.36 474.805 739.679 448.738 706.906C432.32 687.372 422.847 677.028 405.493 659.618C377.417 630.827 364.12 613.869 344.775 582.159C319.927 542.499 309.917 520.578 297 481.876" stroke="#98C6EB" stroke-linejoin="round"/>
<path d="M297.536 483.057C290.692 460.452 286.102 448.052 275.427 427.161C256.123 389.626 243.363 369.945 217.297 337.172C200.878 317.638 191.405 307.294 174.052 289.884C145.976 261.093 132.678 244.136 113.334 212.425C88.486 172.765 78.4755 150.844 65.5587 112.142" stroke="#98C6EB" stroke-linejoin="round"/>
<path d="M67.8051 119.047C60.9616 96.4413 56.371 84.0415 45.6966 63.1502C26.3927 25.6157 13.6326 5.93506 -12.4341 -26.8384C-28.8526 -46.3722 -38.3255 -56.7162 -55.679 -74.1263C-83.7547 -102.917 -97.0525 -119.875 -116.397 -151.585C-141.245 -191.245 -151.255 -213.166 -164.172 -251.868" stroke="#98C6EB" stroke-linejoin="round"/>
</svg>
