<svg width="1280" height="320" viewBox="0 0 1280 320" fill="none" xmlns="http://www.w3.org/2000/svg">
<rect width="1440" height="320" transform="translate(-160)" fill="#98C6EB"/>
<path d="M-160 256L-138.2 250.7C-116.4 245 -73 235 -29 192C14.5 149 58 75 102 80C145.5 85 189 171 233 186.7C276.4 203 320 149 364 149.3C407.3 149 451 203 495 197.3C538.2 192 582 128 625 90.7C669.1 53 713 43 756 69.3C800 96 844 160 887 176C930.9 192 975 160 1018 138.7C1061.8 117 1105 107 1149 112C1192.7 117 1236 139 1258 149.3L1280 160V0H1258.2C1236.4 0 1193 0 1149 0C1105.5 0 1062 0 1018 0C974.5 0 931 0 887 0C843.6 0 800 0 756 0C712.7 0 669 0 625 0C581.8 0 538 0 495 0C450.9 0 407 0 364 0C320 0 276 0 233 0C189.1 0 145 0 102 0C58.2 0 15 0 -29 0C-72.7 0 -116 0 -138 0H-160V256Z" fill="white"/>
</svg>
